<?xml version="1.0" standalone="no"?>
<!DOCTYPE svg PUBLIC "-//W3C//DTD SVG 1.1//EN" "http://www.w3.org/Graphics/SVG/1.1/DTD/svg11.dtd" >
<svg xmlns="http://www.w3.org/2000/svg">
<metadata></metadata>
<defs>
<font id="nemode_demoregular" horiz-adv-x="1187" >
<font-face units-per-em="2048" ascent="1638" descent="-410" />
<missing-glyph horiz-adv-x="614" />
<glyph horiz-adv-x="2048" />
<glyph horiz-adv-x="2048" />
<glyph unicode="&#xd;" horiz-adv-x="2048" />
<glyph unicode=" "  horiz-adv-x="614" />
<glyph unicode="&#x09;" horiz-adv-x="614" />
<glyph unicode="&#xa0;" horiz-adv-x="614" />
<glyph unicode="A" horiz-adv-x="1331" d="M143 31v1095q0 63 25 120t65.5 97.5t97 65.5t120.5 25h430q63 0 119.5 -25t97.5 -65.5t65.5 -97t24.5 -120.5v-1095q0 -31 -31 -31h-143q-31 0 -31 31v481q0 31 -31 31h-573q-31 0 -31 -31v-481q0 -31 -31 -31h-143q-31 0 -31 31zM348 778q0 -30 29 -30h2h573q31 0 31 30 v348q0 43 -29.5 73t-72.5 30h-430q-43 0 -73 -30t-30 -73v-348z" />
<glyph unicode="B" horiz-adv-x="1280" d="M143 31v1095q0 63 23.5 120t65.5 97.5t97.5 65.5t119.5 25h329q63 0 118.5 -25t96.5 -65.5t65.5 -97t24.5 -120.5v-204q0 -80 -39 -152q63 -41 101.5 -107.5t42.5 -146.5v-211q0 -63 -24.5 -118.5t-66.5 -97.5t-97.5 -65.5t-118.5 -23.5h-707q-31 0 -31 31zM348 236 q0 -31 31 -31h502q41 0 71.5 29.5t30.5 70.5v207q-2 43 -31.5 72.5t-70.5 29.5h-502q-31 0 -31 -30v-348zM348 850q0 -31 31 -31h399q41 0 71 30t30 73v204q0 43 -30 73t-71 30h-329q-43 0 -72 -31t-29 -72v-276z" />
<glyph unicode="C" horiz-adv-x="1167" d="M133 307v819q0 63 23.5 120t65.5 97.5t97.5 65.5t118.5 25h606q31 0 31 -31v-143q0 -31 -31 -31h-606q-43 0 -71.5 -31t-28.5 -72v-819q0 -41 28.5 -71.5t71.5 -30.5h606q31 0 31 -31v-143q0 -31 -31 -31h-606q-63 0 -118.5 24.5t-97.5 65.5t-65.5 97.5t-23.5 119.5z" />
<glyph unicode="D" horiz-adv-x="1320" d="M143 31v1372q0 31 31 31h707q63 0 119.5 -25t97.5 -65.5t65.5 -97t24.5 -120.5v-819q0 -63 -24.5 -119.5t-65.5 -97.5t-97.5 -65.5t-119.5 -24.5h-707q-31 0 -31 31zM348 236q0 -31 31 -31h502q43 0 72.5 29.5t29.5 72.5v819q0 43 -29.5 73t-72.5 30h-502q-31 0 -31 -31 v-962z" />
<glyph unicode="E" horiz-adv-x="1208" d="M143 307v819q0 63 23.5 120t65.5 97.5t97.5 65.5t119.5 25h606q31 0 30 -31v-143q0 -31 -30 -31h-606q-43 0 -72 -31t-29 -72v-278q0 -31 31 -31h676q31 0 30 -31v-143q0 -31 -30 -31h-676q-31 0 -31 -30v-275q0 -41 29 -71.5t72 -30.5h606q31 0 30 -31v-143 q0 -31 -30 -31h-606q-63 0 -119 24.5t-98 65.5t-65.5 97.5t-23.5 119.5z" />
<glyph unicode="F" horiz-adv-x="1144" d="M143 31v1095q0 63 23.5 120t65.5 97.5t97.5 65.5t119.5 25h604q31 0 30 -31v-143q0 -31 -30 -31h-604q-43 0 -72 -31t-29 -72v-276q0 -31 31 -31h674q31 0 30 -31v-143q0 -31 -30 -31h-674q-31 0 -31 -30v-553q0 -31 -31 -31h-143q-31 0 -31 31z" />
<glyph unicode="G" horiz-adv-x="1310" d="M133 307v819q0 63 23.5 120t65.5 97.5t97.5 65.5t118.5 25h668q31 0 31 -31v-143q0 -31 -31 -31h-668q-43 0 -71.5 -31t-28.5 -72v-819q0 -41 28.5 -71.5t71.5 -30.5h434q41 0 71 29.5t30 72.5v205q0 31 -31 31h-141q-31 0 -31 30v144q0 31 31 31h346q31 0 31 -31v-410 q0 -63 -25 -119.5t-65.5 -97.5t-96 -65.5t-119.5 -24.5h-434q-63 0 -118.5 24.5t-97.5 65.5t-65.5 97.5t-23.5 119.5z" />
<glyph unicode="H" horiz-adv-x="1331" d="M143 31v1372q0 31 31 31h143q31 0 31 -31v-549q0 -31 31 -31h573q31 0 31 31v549q0 31 31 31h143q31 0 31 -31v-1372q0 -31 -31 -31h-143q-31 0 -31 31v557q0 31 -31 30h-573q-31 0 -31 -30v-557q0 -31 -31 -31h-143q-31 0 -31 31z" />
<glyph unicode="I" horiz-adv-x="532" d="M164 31v1372q0 31 31 31h143q31 0 31 -31v-1372q0 -31 -31 -31h-143q-31 0 -31 31z" />
<glyph unicode="J" horiz-adv-x="901" d="M41 31v143q0 31 31 31h381q43 0 71.5 30.5t28.5 71.5v891q0 31 -31 31h-145q-31 0 -31 31v143q0 31 31 31h350q31 0 31 -31v-1096q0 -63 -24.5 -119.5t-65.5 -97.5t-96.5 -65.5t-118.5 -24.5h-381q-31 0 -31 31z" />
<glyph unicode="K" horiz-adv-x="1232" d="M143 31v1372q0 31 31 31h143q31 0 31 -31v-522q0 -31 31 -31h139q53 0 88 30.5t60 71.5l284 451q10 14 13.5 22.5t17.5 8.5h172q10 0 21.5 -5.5t11.5 -15.5q0 -6 -2 -10l-285 -451q-39 -55 -73.5 -108t-75.5 -96q41 -41 76.5 -95.5t72.5 -109.5l322 -512q2 -4 2 -11 q0 -10 -11.5 -15t-21.5 -5h-172q-14 0 -17.5 8t-13.5 23l-321 512q-27 39 -60 70.5t-88 31.5h-139q-31 0 -31 -31v-583q0 -31 -31 -31h-143q-31 0 -31 31z" />
<glyph unicode="L" horiz-adv-x="1124" d="M143 307v1096q0 31 31 31h143q31 0 31 -31v-1096q0 -41 29 -71.5t72 -30.5h604q31 0 30 -31v-143q0 -31 -30 -31h-604q-63 0 -119 24.5t-98 65.5t-65.5 97.5t-23.5 119.5z" />
<glyph unicode="M" horiz-adv-x="1740" d="M143 31v1372q0 31 31 31h201q25 0 37 -21l442 -792q4 -8 7 -12.5t9 -4.5t17 17l442 792q12 20 37 21h201q31 0 30 -31v-1372q0 -31 -30 -31h-144q-31 0 -30 31v1020q0 27 -17 26q-12 0 -20 -14l-410 -754q-12 -20 -32.5 -30.5t-43.5 -10.5q-51 0 -75 41l-410 754 q-8 14 -20 14q-16 0 -17 -26v-1020q0 -31 -31 -31h-143q-31 0 -31 31z" />
<glyph unicode="N" horiz-adv-x="1331" d="M143 31v1372q0 31 31 31h207q25 0 37 -21l536 -1044q8 -16 17 -17q12 0 12 27v1024q0 31 31 31h143q31 0 31 -31v-1372q0 -31 -31 -31h-207q-25 0 -37 20l-536 1045q-8 16 -19 16q-10 0 -10 -26v-1024q0 -31 -31 -31h-143q-31 0 -31 31z" />
<glyph unicode="O" horiz-adv-x="1320" d="M133 307v819q0 63 24.5 120t65.5 97.5t97.5 65.5t119.5 25h707q31 0 31 -31v-1096q0 -63 -25 -119.5t-65.5 -97.5t-97 -65.5t-120.5 -24.5h-430q-63 0 -119.5 24.5t-97.5 65.5t-65.5 97.5t-24.5 119.5zM338 307q0 -43 29.5 -72.5t72.5 -29.5h430q43 0 73 29.5t30 72.5 v891q0 31 -31 31h-502q-43 0 -72.5 -30t-29.5 -73v-819z" />
<glyph unicode="P" horiz-adv-x="1239" d="M143 31v1095q0 63 25 120t65.5 97.5t97 65.5t120.5 25h430q63 0 119.5 -25t97.5 -65.5t65.5 -97t24.5 -120.5v-276q0 -63 -24.5 -119.5t-65.5 -97.5t-97.5 -65.5t-119.5 -24.5h-502q-31 0 -31 -31v-481q0 -31 -31 -31h-143q-31 0 -31 31zM348 778q0 -30 29 -30h2h502 q43 0 72.5 29.5t29.5 72.5v276q0 43 -29.5 73t-72.5 30h-430q-43 0 -73 -30t-30 -73v-348z" />
<glyph unicode="Q" horiz-adv-x="1310" d="M133 305v823q0 63 24.5 119t65.5 96.5t97.5 65.5t119.5 25h430q63 0 120 -25t97.5 -65.5t65.5 -96t25 -119.5v-823q0 -63 -25 -118.5t-65.5 -97.5t-97 -65.5t-120.5 -23.5h-10q-27 0 -26 -18q0 -8 10 -19l282 -282q10 -10 11 -21q0 -16 -27 -16h-170q-23 0 -39 16 l-323 324q-16 16 -39 16h-99q-63 0 -119.5 23.5t-97.5 65.5t-65.5 97.5t-24.5 118.5zM338 305q0 -43 30.5 -71.5t71.5 -28.5h430q41 0 72 28.5t31 71.5v823q0 43 -31 72t-72 29h-430q-41 0 -71.5 -29t-30.5 -72v-823z" />
<glyph unicode="R" horiz-adv-x="1327" d="M143 31v1095q0 63 25 120t65.5 97.5t97 65.5t120.5 25h430q63 0 119.5 -25t97.5 -65.5t65.5 -97t24.5 -120.5v-235q0 -55 -18.5 -105.5t-51.5 -90.5t-78 -67.5t-96 -37.5l371 -559q2 -4 2 -11q0 -10 -11.5 -15t-21.5 -5h-172q-14 0 -17 8t-14 23l-299 450 q-25 35 -57.5 67t-79.5 36h-266q-31 0 -31 -31v-522q0 -31 -31 -31h-143q-31 0 -31 31zM348 819q0 -31 31 -31h502q43 0 72.5 30t29.5 73v235q0 43 -29.5 73t-72.5 30h-430q-43 0 -73 -30t-30 -73v-307z" />
<glyph unicode="S" horiz-adv-x="1249" d="M102 922v204q0 63 24 120t65.5 97.5t97 65.5t119.5 25h636q31 0 31 -31v-143q0 -31 -31 -31h-636q-41 0 -71 -30t-30 -73v-204q0 -43 30 -73t71 -30h458q57 0 107.5 -27.5t89.5 -70.5t61.5 -97.5t22.5 -109.5v-209h-2q0 -63 -24.5 -118.5t-65.5 -97.5t-96.5 -65.5 t-118.5 -23.5h-666q-31 0 -31 31v143q0 31 31 31h666q41 0 70.5 29.5t29.5 72.5h2v205q0 43 -30.5 72.5t-71.5 29.5h-459q-59 0 -109.5 27t-88.5 71t-59.5 99t-21.5 111z" />
<glyph unicode="T" horiz-adv-x="1085" d="M20 1260v143q0 31 31 31h983q31 0 31 -31v-143q0 -31 -31 -31h-358q-31 0 -31 -31v-1167q0 -31 -31 -31h-143q-31 0 -31 31v1167q0 31 -30 31h-359q-31 0 -31 31z" />
<glyph unicode="U" horiz-adv-x="1331" d="M143 307v1096q0 31 31 31h143q31 0 31 -31v-1096q0 -43 30 -72.5t73 -29.5h430q43 0 72.5 29.5t29.5 72.5v1096q0 31 31 31h143q31 0 31 -31v-1096q0 -63 -24.5 -119.5t-65.5 -97.5t-97.5 -65.5t-119.5 -24.5h-430q-63 0 -120 24.5t-97.5 65.5t-65.5 97.5t-25 119.5z" />
<glyph unicode="V" horiz-adv-x="1331" d="M25 1399q-4 9 -4 16q0 19 28 19h164q25 0 37 -25l395 -1003q8 -20 20.5 -20.5t20.5 20.5l395 1003q12 25 37 25h164q29 0 29 -19q0 -7 -4 -16l-537 -1336q-12 -31 -42 -47t-64 -16q-31 0 -61 15.5t-42 47.5z" />
<glyph unicode="W" horiz-adv-x="1740" d="M143 305v1098q0 31 31 31h143q31 0 31 -31v-1098q0 -41 30 -70.5t73 -29.5h215q43 0 72.5 29.5t29.5 70.5v1098q0 31 31 31h143q31 0 31 -31v-1098q0 -41 29.5 -70.5t72.5 -29.5h215q43 0 73 29.5t30 70.5v1098q0 31 30 31h144q31 0 30 -31v-1098q0 -63 -24.5 -118.5 t-65.5 -97.5t-97 -65.5t-120 -23.5h-215q-59 0 -111.5 20.5t-93.5 57.5q-41 -37 -93 -57.5t-111 -20.5h-215q-63 0 -120 23.5t-97.5 65.5t-65.5 97.5t-25 118.5z" />
<glyph unicode="X" horiz-adv-x="1249" d="M41 18q0 6 8 19l436 657q8 8 9 21q0 10 -9 20l-436 660q-8 12 -8 18q0 18 29 19h174q20 0 37 -19l321 -502q8 -12 23 -12q10 0 22 12l324 502q14 18 37 19h174q26 0 26 -18q0 -11 -6 -19l-438 -660q-10 -14 -10 -20q0 -10 10 -21l436 -657q6 -10 6 -19q0 -18 -26 -18 h-174q-23 0 -37 18l-322 498q-12 12 -22 12q-14 0 -23 -12l-321 -498q-16 -18 -37 -18h-174q-29 0 -29 18z" />
<glyph unicode="Y" horiz-adv-x="1286" d="M10 1425q0 8 15 9h192q25 0 37 -21l369 -627q10 -16 18 -16q12 0 23 16l368 627q12 20 37 21h193q14 0 14 -9q0 -6 -4 -13t-8 -15l-506 -844q-10 -16 -10 -37v-485q0 -31 -31 -31h-144q-31 0 -30 31v481q0 20 -11 39l-509 846q-4 8 -8.5 15t-4.5 13z" />
<glyph unicode="Z" horiz-adv-x="1130" d="M61 88q0 23 9.5 45.5t25.5 44.5l658 1014q8 8 8 18q0 18 -27 19h-629q-31 0 -30 31v143q0 31 30 31h838q59 0 92 -38t33 -79q0 -25 -12 -43l-668 -1032q-8 -10 -8 -21q0 -16 27 -16h618q31 0 31 -31v-143q0 -31 -31 -31h-829q-72 0 -104 25.5t-32 62.5z" />
<glyph unicode="a" horiz-adv-x="1146" d="M92 307q0 63 24.5 119.5t65.5 97.5t97.5 65.5t119.5 24.5h400q31 0 30 31v72q0 43 -29.5 72.5t-72.5 29.5h-504q-31 0 -30 31v143q0 31 30 31h504q63 0 119.5 -24.5t97.5 -65.5t65.5 -97.5t24.5 -119.5v-686q0 -31 -30 -31h-605q-63 0 -119.5 24.5t-97.5 65.5t-65.5 97.5 t-24.5 119.5zM297 307q0 -43 29.5 -72.5t72.5 -29.5h400q31 0 30 31v143q0 31 -30 31h-400q-43 0 -72.5 -30t-29.5 -73z" />
<glyph unicode="b" d="M133 307v1096q0 31 31 31h143q31 0 31 -31v-348q0 -31 31 -31h399q63 0 119.5 -24.5t97.5 -65.5t65.5 -97.5t24.5 -119.5v-410q0 -63 -24.5 -119.5t-65.5 -97.5t-97.5 -65.5t-119.5 -24.5h-328q-63 0 -119.5 24.5t-97.5 65.5t-65.5 97.5t-24.5 119.5zM338 307 q0 -43 29.5 -72.5t72.5 -29.5h328q43 0 72.5 29.5t29.5 72.5v410q0 43 -29.5 72.5t-72.5 29.5h-399q-31 0 -31 -31v-481z" />
<glyph unicode="c" horiz-adv-x="1116" d="M123 307v410q0 63 24.5 119.5t65.5 97.5t97.5 65.5t119.5 24.5h563q31 0 31 -31v-143q0 -31 -31 -31h-563q-43 0 -72.5 -29.5t-29.5 -72.5v-410q0 -43 29.5 -72.5t72.5 -29.5h563q31 0 31 -31v-143q0 -31 -31 -31h-563q-63 0 -119.5 24.5t-97.5 65.5t-65.5 97.5 t-24.5 119.5z" />
<glyph unicode="d" d="M113 307v410q0 63 24.5 119.5t65.5 97.5t97 65.5t120 24.5h399q31 0 31 31v348q0 31 31 31h143q31 0 31 -31v-1096q0 -63 -24.5 -119.5t-65.5 -97.5t-97.5 -65.5t-119.5 -24.5h-328q-63 0 -119.5 24.5t-97.5 65.5t-65.5 97.5t-24.5 119.5zM317 307q0 -43 30 -72.5 t73 -29.5h328q43 0 72.5 29.5t29.5 72.5v481q0 31 -31 31h-399q-43 0 -73 -30.5t-30 -71.5v-410z" />
<glyph unicode="e" horiz-adv-x="1167" d="M113 307v410q0 63 24.5 119.5t65.5 97.5t97 65.5t120 24.5h328q63 0 119.5 -24.5t97.5 -65.5t65.5 -97.5t24.5 -119.5v-277q0 -31 -31 -30h-676q-31 0 -31 -31v-72q0 -43 30 -72.5t73 -29.5h563q31 0 31 -31v-143q0 -31 -31 -31h-563q-63 0 -119.5 24.5t-97.5 65.5 t-65.5 97.5t-24.5 119.5zM317 614h533v103q0 43 -29.5 72.5t-72.5 29.5h-328q-43 0 -73 -29.5t-30 -72.5v-103z" />
<glyph unicode="f" horiz-adv-x="829" d="M61 850v141q0 31 31 31h144q31 0 30 31v73q0 63 24.5 120t65.5 97.5t97.5 65.5t119.5 25h185q31 0 30 -31v-143q0 -31 -30 -31h-185q-43 0 -72.5 -30t-29.5 -73v-71q0 -31 31 -31h246q31 0 30 -31v-143q0 -31 -30 -31h-246q-31 0 -31 -31v-757q0 -31 -31 -31h-143 q-31 0 -31 31v757q0 31 -30 31h-144q-31 0 -31 31z" />
<glyph unicode="g" horiz-adv-x="1189" d="M113 307v410q0 63 24.5 119.5t65.5 97.5t97 65.5t120 24.5h604q31 0 31 -31v-686q0 -59 -20.5 -111.5t-57.5 -93.5q37 -41 58.5 -93t21.5 -111q0 -63 -24.5 -120t-65.5 -97.5t-97.5 -65.5t-119.5 -25h-547q-31 0 -31 31v143q0 31 31 31h547q43 0 72.5 30t29.5 73 q0 41 -29.5 71.5t-72.5 30.5h-330q-63 0 -119.5 24.5t-97.5 65.5t-65.5 97.5t-24.5 119.5zM317 307q0 -43 30 -72.5t73 -29.5h328q43 0 72.5 29.5t29.5 72.5v481q0 31 -31 31h-399q-43 0 -73 -30.5t-30 -71.5v-410z" />
<glyph unicode="h" d="M133 31v1372q0 31 31 31h143q31 0 31 -31v-379h430q63 0 119.5 -24.5t97.5 -65.5t65.5 -97.5t24.5 -119.5v-686q0 -31 -31 -31h-143q-31 0 -31 31v686q0 43 -29.5 72.5t-72.5 29.5h-399q-31 0 -31 -31v-757q0 -31 -31 -31h-143q-31 0 -31 31z" />
<glyph unicode="i" horiz-adv-x="532" d="M164 31v962q0 31 31 31h143q31 0 31 -31v-962q0 -31 -31 -31h-143q-31 0 -31 31zM164 1260v143q0 31 31 31h143q31 0 31 -31v-143q0 -31 -31 -31h-143q-31 0 -31 31z" />
<glyph unicode="j" horiz-adv-x="532" d="M-154 -236q0 31 31 31h184q43 0 73 30t30 73v1065q0 31 31 30h143q31 0 31 -30v-1065q0 -63 -25 -120t-65.5 -97.5t-97 -65.5t-120.5 -25h-184q-31 0 -31 31v143zM164 1260v143q0 31 31 31h143q31 0 31 -31v-143q0 -31 -31 -31h-143q-31 0 -31 31z" />
<glyph unicode="k" horiz-adv-x="1114" d="M143 31v1372q0 31 31 31h143q31 0 31 -31v-655q0 -31 31 -31h153q45 0 77 30.5t55 71.5l120 174q8 14 11.5 22.5t19.5 8.5h160q12 0 22.5 -5t10.5 -15q0 -6 -2 -11q-111 -168 -166.5 -258t-73.5 -100q14 -10 31.5 -36t37 -58.5t38 -68.5t34.5 -66l185 -375q2 -4 2 -11 q0 -10 -10.5 -15t-22.5 -5h-162q-16 0 -19 7t-12 24l-184 375q-23 43 -44.5 74.5t-74.5 31.5h-186q-31 0 -31 -31v-450q0 -31 -31 -31h-143q-31 0 -31 31z" />
<glyph unicode="l" horiz-adv-x="573" d="M164 104v1299q0 31 31 31h143q31 0 31 -31v-1165q0 -31 30 -31h72q31 0 31 -31v-143q0 -31 -31 -31h-205q-51 0 -76.5 34t-25.5 68z" />
<glyph unicode="m" horiz-adv-x="1710" d="M133 31v962q0 31 31 31h1116q63 0 119.5 -24.5t97.5 -65.5t65.5 -96.5t24.5 -118.5v-688q0 -31 -31 -31h-143q-31 0 -31 31v688q0 43 -30.5 71.5t-71.5 28.5h-287q-31 0 -30 -31v-757q0 -31 -31 -31h-144q-31 0 -30 31v757q0 31 -31 31h-358q-31 0 -31 -31v-757 q0 -31 -31 -31h-143q-31 0 -31 31z" />
<glyph unicode="n" d="M133 31v962q0 31 31 31h604q63 0 119.5 -24.5t97.5 -65.5t65.5 -97.5t24.5 -119.5v-686q0 -31 -31 -31h-143q-31 0 -31 31v686q0 43 -29.5 72.5t-72.5 29.5h-399q-31 0 -31 -31v-757q0 -31 -31 -31h-143q-31 0 -31 31z" />
<glyph unicode="o" horiz-adv-x="1177" d="M113 307v410q0 63 24.5 119.5t65.5 97.5t97 65.5t120 24.5h604q31 0 31 -31v-686q0 -63 -24.5 -119.5t-65.5 -97.5t-97.5 -65.5t-119.5 -24.5h-328q-63 0 -119.5 24.5t-97.5 65.5t-65.5 97.5t-24.5 119.5zM317 307q0 -43 30 -72.5t73 -29.5h328q43 0 72.5 29.5t29.5 72.5 v481q0 31 -31 31h-399q-43 0 -73 -29.5t-30 -72.5v-410z" />
<glyph unicode="p" d="M133 -379v1372q0 31 31 31h604q63 0 119.5 -24.5t97.5 -65.5t65.5 -97.5t24.5 -119.5v-410q0 -63 -24.5 -119.5t-65.5 -97.5t-97.5 -65.5t-119.5 -24.5h-328q-53 0 -102 16v-395q0 -31 -31 -31h-143q-31 0 -31 31zM338 307q0 -43 29.5 -72.5t72.5 -29.5h328 q43 0 72.5 29.5t29.5 72.5v410q0 43 -29.5 72.5t-72.5 29.5h-399q-31 0 -31 -31v-481z" />
<glyph unicode="q" d="M113 307v410q0 63 24.5 119.5t65.5 97.5t97 65.5t120 24.5h604q31 0 31 -31v-1372q0 -31 -31 -31h-143q-31 0 -31 31v395q-53 -16 -102 -16h-328q-63 0 -119.5 24.5t-97.5 65.5t-65.5 97.5t-24.5 119.5zM317 307q0 -43 30 -72.5t73 -29.5h328q41 0 69.5 26.5t32.5 67.5 v489q0 31 -31 31h-399q-43 0 -73 -29.5t-30 -72.5v-410z" />
<glyph unicode="r" horiz-adv-x="808" d="M123 31v684q0 63 23.5 118.5t64.5 97.5t96 66.5t119 26.5h301q31 0 31 -31v-143q0 -31 -31 -31h-297q-43 0 -72.5 -30.5t-29.5 -73.5v-684q0 -31 -31 -31h-143q-31 0 -31 31z" />
<glyph unicode="s" horiz-adv-x="1146" d="M102 717q0 63 25 119.5t65.5 97.5t97 65.5t120.5 24.5h542q31 0 31 -31v-143q0 -31 -31 -31h-542q-43 0 -73 -29.5t-30 -72.5q0 -41 30 -72t73 -31h327q63 0 119.5 -24.5t97.5 -65.5t65.5 -97t24.5 -120q0 -63 -24.5 -119.5t-65.5 -97.5t-97 -65.5t-120 -24.5h-544 q-31 0 -31 31v143q0 31 31 31h544q43 0 73 30.5t30 71.5q0 43 -30 73t-73 30h-327q-63 0 -120 24.5t-97.5 65.5t-65.5 97t-25 120z" />
<glyph unicode="t" horiz-adv-x="829" d="M41 852v141q0 31 31 31h143q31 0 31 31v243q0 31 30 31h144q31 0 31 -31v-243q0 -31 30 -31h246q31 0 31 -31v-143q0 -31 -31 -31h-246q-31 0 -30 -31v-481q0 -43 29.5 -72.5t72.5 -29.5h184q31 0 31 -31v-143q0 -31 -31 -31h-184q-63 0 -119.5 24.5t-97.5 65.5 t-65.5 97.5t-24.5 119.5v484q0 31 -31 30h-143q-31 0 -31 31z" />
<glyph unicode="u" d="M123 307v686q0 31 31 31h143q31 0 31 -31v-686q0 -43 29.5 -72.5t72.5 -29.5h328q43 0 72.5 29.5t29.5 72.5v686q0 31 31 31h143q31 0 31 -31v-686q0 -63 -24.5 -119.5t-65.5 -97.5t-97.5 -65.5t-119.5 -24.5h-328q-63 0 -119.5 24.5t-97.5 65.5t-65.5 97.5t-24.5 119.5z " />
<glyph unicode="v" horiz-adv-x="1146" d="M20 1006q0 18 23 18h150q29 0 40 -31l236 -622q20 -55 31.5 -88t20.5 -49.5t19.5 -21.5t32.5 -7q20 2 31.5 7t21 21.5t20.5 49t32 88.5l235 622q12 31 41 31h150q22 0 22 -17q0 -9 -2 -14l-252 -694q-31 -86 -56 -143.5t-56 -92t-74 -49t-113 -14.5t-112.5 14.5t-73.5 49 t-56.5 92t-56.5 143.5l-251 694q-2 4 -3 13z" />
<glyph unicode="w" horiz-adv-x="1699" d="M123 305v688q0 31 31 31h143q31 0 31 -31v-688q0 -41 29.5 -70.5t72.5 -29.5h215q43 0 73 29.5t30 70.5v688q0 31 30 31h144q31 0 30 -31v-688q0 -41 30 -70.5t73 -29.5h215q43 0 72.5 29.5t29.5 70.5v688q0 31 31 31h143q31 0 31 -31v-688q0 -63 -24.5 -118.5 t-65.5 -97.5t-97.5 -65.5t-119.5 -23.5h-215q-59 0 -111.5 20.5t-93.5 57.5q-41 -37 -93 -57.5t-112 -20.5h-215q-63 0 -119.5 23.5t-97.5 65.5t-65.5 97.5t-24.5 118.5z" />
<glyph unicode="x" horiz-adv-x="1050" d="M44 1014q5 10 26 10h180q25 0 39 -20l215 -318q20 -31 43 0l215 318q14 20 39 20h180q19 0 25 -10q2 -3 2 -7q0 -8 -7 -20l-331 -455q-18 -20 0 -40l331 -455q7 -11 7 -19q0 -4 -2 -8q-5 -10 -25 -10h-180q-25 0 -39 20l-215 318q-20 31 -43 0l-215 -318q-14 -20 -39 -20 h-180q-20 0 -26 10q-2 4 -1 8q0 8 6 19l330 455q18 20 0 40l-330 455q-7 11 -7 19q0 4 2 8z" />
<glyph unicode="y" horiz-adv-x="1198" d="M123 307v686q0 31 31 31h143q31 0 31 -31v-686q0 -43 29.5 -72.5t72.5 -29.5h399q31 0 31 31v757q0 31 31 31h143q31 0 31 -31v-1128q-6 -59 -32.5 -109.5t-67.5 -87.5t-94.5 -57.5t-112.5 -20.5h-502q-31 0 -31 31v143q0 31 31 31h502q41 0 71.5 31t30.5 72v71 q0 31 -31 31h-399q-63 0 -119.5 24.5t-97.5 65.5t-65.5 97.5t-24.5 119.5z" />
<glyph unicode="z" horiz-adv-x="999" d="M61 51q0 10 5.5 19.5t11.5 19.5l538 729h-514q-31 0 -30 31v143q0 31 30 31h807q23 0 37.5 -14.5t14.5 -36.5q0 -23 -17 -39l-538 -729h514q31 0 30 -31v-143q0 -31 -30 -31h-807q-23 0 -37.5 14.5t-14.5 36.5z" />
<glyph unicode="&#x2000;" horiz-adv-x="717" />
<glyph unicode="&#x2001;" horiz-adv-x="1434" />
<glyph unicode="&#x2002;" horiz-adv-x="717" />
<glyph unicode="&#x2003;" horiz-adv-x="1434" />
<glyph unicode="&#x2004;" horiz-adv-x="478" />
<glyph unicode="&#x2005;" horiz-adv-x="358" />
<glyph unicode="&#x2006;" horiz-adv-x="239" />
<glyph unicode="&#x2007;" horiz-adv-x="239" />
<glyph unicode="&#x2008;" horiz-adv-x="179" />
<glyph unicode="&#x2009;" horiz-adv-x="286" />
<glyph unicode="&#x200a;" horiz-adv-x="79" />
<glyph unicode="&#x202f;" horiz-adv-x="286" />
<glyph unicode="&#x205f;" horiz-adv-x="358" />
<glyph unicode="&#xe000;" horiz-adv-x="1024" d="M0 0v1024h1024v-1024h-1024z" />
</font>
</defs>
</svg>
